<svg width="128" height="26" viewBox="0 0 128 26" fill="none" xmlns="http://www.w3.org/2000/svg">
<path d="M1.62234 19H5.06234V14.9H6.80234C9.68234 14.9 11.9023 13.04 11.9023 10.34C11.9023 7.6 9.74234 5.8 6.80234 5.8H1.62234V19ZM5.06234 11.9V8.8H6.82234C7.78234 8.8 8.40234 9.4 8.40234 10.34C8.40234 11.28 7.78234 11.9 6.82234 11.9H5.06234ZM24.6508 19L21.1708 14.1C22.4708 13.3 23.2508 11.96 23.2508 10.34C23.2508 7.6 21.0908 5.8 18.1508 5.8H12.9708V19H16.4108V14.9H17.8308L20.8108 19H24.6508ZM16.4108 8.8H18.1708C19.1308 8.8 19.7508 9.4 19.7508 10.34C19.7508 11.28 19.1308 11.9 18.1708 11.9H16.4108V8.8Z" fill="#003049"/>
<path d="M46.5377 19H49.9777V8.9H53.9377V5.8H42.5777V8.9H46.5377V19ZM66.2355 19L62.7555 14.1C64.0555 13.3 64.8355 11.96 64.8355 10.34C64.8355 7.6 62.6755 5.8 59.7355 5.8H54.5555V19H57.9955V14.9H59.4155L62.3955 19H66.2355ZM57.9955 8.8H59.7555C60.7155 8.8 61.3355 9.4 61.3355 10.34C61.3355 11.28 60.7155 11.9 59.7555 11.9H57.9955V8.8ZM74.8224 19H78.5224L72.5224 5.56H71.4224L65.4224 19H69.1224L69.6024 17.9H74.3424L74.8224 19ZM73.1224 15.14H70.8224L71.9824 12.08L73.1224 15.14ZM78.013 12.4C77.933 16.22 81.253 19.3 85.133 19.24C87.793 19.24 89.993 17.94 91.193 15.7L88.573 13.92C87.713 15.36 86.573 16.08 85.133 16.08C84.073 16.08 83.213 15.74 82.533 15.08C81.873 14.4 81.533 13.52 81.533 12.42C81.533 10.2 83.033 8.72 85.133 8.72C86.573 8.72 87.713 9.44 88.573 10.88L91.193 9.1C89.993 6.86 87.793 5.56 85.153 5.56C81.233 5.48 77.953 8.62 78.013 12.4ZM104.786 19L99.5062 12.08L104.046 5.8H100.046L95.6862 11.78V5.8H92.2462V19H95.6862V12.42L100.706 19H104.786ZM105.252 19H114.652V15.9H108.692V13.6H112.772V10.72H108.692V8.9H114.412V5.8H105.252V19ZM127.575 19L124.095 14.1C125.395 13.3 126.175 11.96 126.175 10.34C126.175 7.6 124.015 5.8 121.075 5.8H115.895V19H119.335V14.9H120.755L123.735 19H127.575ZM119.335 8.8H121.095C122.055 8.8 122.675 9.4 122.675 10.34C122.675 11.28 122.055 11.9 121.095 11.9H119.335V8.8Z" fill="#003049"/>
<path d="M36.5906 12.4787L36.5957 12.4736L35.7172 11.3488C35.7009 11.3278 35.6806 11.3102 35.6574 11.297C35.6343 11.2838 35.6088 11.2753 35.5824 11.272C35.556 11.2687 35.5291 11.2707 35.5035 11.2778C35.4778 11.2848 35.4538 11.2969 35.4328 11.3133L34.1531 12.3111L32.3631 10.0234C32.3468 10.0024 32.3265 9.98479 32.3033 9.97161C32.2802 9.95844 32.2547 9.94995 32.2283 9.94665C32.2019 9.94335 32.175 9.94529 32.1494 9.95237C32.1237 9.95944 32.0997 9.97152 32.0787 9.98789L31.1164 10.742C31.0954 10.7583 31.0778 10.7786 31.0646 10.8017C31.0514 10.8249 31.0429 10.8504 31.0396 10.8768C31.0363 10.9032 31.0383 10.93 31.0453 10.9557C31.0524 10.9814 31.0645 11.0054 31.0809 11.0264L32.8709 13.3166L32.8658 13.3191L33.7443 14.4439C33.8129 14.5328 33.9398 14.548 34.0287 14.4795L35.3084 13.4816L36.9359 15.5637C37.0045 15.6525 37.1314 15.6678 37.2203 15.5992L38.1826 14.8477C38.2715 14.7791 38.2867 14.6521 38.2182 14.5633L36.5906 12.4787V12.4787ZM34.4375 4.84375C30.1744 4.84375 26.7187 8.29941 26.7187 12.5625C26.7187 14.3475 27.3256 15.9902 28.3412 17.2979L21.9021 23.7369C21.8643 23.7751 21.8431 23.8266 21.8431 23.8804C21.8431 23.9341 21.8643 23.9857 21.9021 24.0238L22.9762 25.0979C23.0549 25.1766 23.1844 25.1766 23.2631 25.0979L29.7021 18.6588C31.0098 19.6744 32.6525 20.2812 34.4375 20.2812C38.7006 20.2812 42.1563 16.8256 42.1563 12.5625C42.1563 8.29941 38.7006 4.84375 34.4375 4.84375ZM38.5305 16.6555C37.4387 17.7498 35.9838 18.3516 34.4375 18.3516C32.8912 18.3516 31.4363 17.7498 30.3445 16.6555C29.2502 15.5637 28.6484 14.1088 28.6484 12.5625C28.6484 11.0162 29.2502 9.56133 30.3445 8.46953C31.4363 7.3752 32.8912 6.77344 34.4375 6.77344C35.9838 6.77344 37.4387 7.3752 38.5305 8.46953C39.6248 9.56133 40.2266 11.0162 40.2266 12.5625C40.2266 14.1088 39.6248 15.5637 38.5305 16.6555Z" fill="#D62828"/>
</svg>
